<svg width="140" height="50" viewBox="0 0 140 50" fill="none" xmlns="http://www.w3.org/2000/svg">

<rect width="50" height="50" rx="10" fill="#10C7BC"/>
<path d="M14.1562 26.6152V16.7812H17.0078V26.625C17.0078 27.569 16.8255 28.3861 16.4609 29.0762C16.1029 29.7598 15.6146 30.2839 14.9961 30.6484C14.3776 31.013 13.681 31.1953 12.9062 31.1953C12.112 31.1953 11.4023 31.0391 10.7773 30.7266C10.1589 30.4076 9.67057 29.9258 9.3125 29.2812C8.95443 28.6302 8.77539 27.8034 8.77539 26.8008H11.6465C11.6465 27.3086 11.6986 27.709 11.8027 28.002C11.9069 28.2949 12.0534 28.5065 12.2422 28.6367C12.4375 28.7669 12.6589 28.832 12.9062 28.832C13.1732 28.832 13.3978 28.7441 13.5801 28.5684C13.7689 28.3926 13.9121 28.1419 14.0098 27.8164C14.1074 27.4844 14.1562 27.084 14.1562 26.6152ZM28.5547 25.6484V27.9238H19.873L19.7461 26.1367L24.5801 16.7812H26.748L24.5312 20.9414L22.4219 25.6484H28.5547ZM27.3438 16.7812V31H24.5996V16.7812H27.3438ZM37.7871 16.7812H40.6387V26.5469C40.6387 27.6406 40.4368 28.5326 40.0332 29.2227C39.6361 29.9062 39.0859 30.4076 38.3828 30.7266C37.6797 31.0391 36.8757 31.1953 35.9707 31.1953C35.0592 31.1953 34.2487 31.0391 33.5391 30.7266C32.8294 30.4076 32.276 29.9062 31.8789 29.2227C31.4883 28.5326 31.293 27.6406 31.293 26.5469V16.7812H34.1445V26.5469C34.1445 27.1654 34.2129 27.6406 34.3496 27.9727C34.4928 28.3047 34.6979 28.5326 34.9648 28.6562C35.2383 28.7734 35.5736 28.832 35.9707 28.832C36.3743 28.832 36.7064 28.7734 36.9668 28.6562C37.2337 28.5326 37.4355 28.3047 37.5723 27.9727C37.7155 27.6406 37.7871 27.1654 37.7871 26.5469V16.7812Z" fill="white"/>
<path d="M65.5137 25.7114V18.3359H67.6523V25.7188C67.6523 26.4268 67.5156 27.0396 67.2422 27.5571C66.9736 28.0698 66.6074 28.4629 66.1436 28.7363C65.6797 29.0098 65.1572 29.1465 64.5762 29.1465C63.9805 29.1465 63.4482 29.0293 62.9795 28.7949C62.5156 28.5557 62.1494 28.1943 61.8809 27.7109C61.6123 27.2227 61.478 26.6025 61.478 25.8506H63.6313C63.6313 26.2314 63.6704 26.5317 63.7485 26.7515C63.8267 26.9712 63.9365 27.1299 64.0781 27.2275C64.2246 27.3252 64.3906 27.374 64.5762 27.374C64.7764 27.374 64.9448 27.3081 65.0815 27.1763C65.2231 27.0444 65.3306 26.8564 65.4038 26.6123C65.4771 26.3633 65.5137 26.063 65.5137 25.7114ZM69.772 25.3086V24.7739C69.772 24.1538 69.8452 23.6045 69.9917 23.126C70.1431 22.6475 70.3579 22.2471 70.6362 21.9248C70.9146 21.5977 71.249 21.3511 71.6396 21.1851C72.0352 21.0142 72.4771 20.9287 72.9653 20.9287C73.4585 20.9287 73.9004 21.0142 74.291 21.1851C74.6865 21.3511 75.0234 21.5977 75.3018 21.9248C75.585 22.2471 75.8022 22.6475 75.9536 23.126C76.105 23.6045 76.1807 24.1538 76.1807 24.7739V25.3086C76.1807 25.9238 76.105 26.4707 75.9536 26.9492C75.8022 27.4277 75.585 27.8306 75.3018 28.1577C75.0234 28.4849 74.689 28.7314 74.2983 28.8975C73.9077 29.0635 73.4683 29.1465 72.98 29.1465C72.4917 29.1465 72.0498 29.0635 71.6543 28.8975C71.2637 28.7314 70.9268 28.4849 70.6436 28.1577C70.3604 27.8306 70.1431 27.4277 69.9917 26.9492C69.8452 26.4707 69.772 25.9238 69.772 25.3086ZM71.8228 24.7739V25.3086C71.8228 25.6748 71.8472 25.9922 71.896 26.2607C71.9497 26.5293 72.0254 26.7515 72.123 26.9272C72.2256 27.103 72.3477 27.2324 72.4893 27.3154C72.6309 27.3984 72.7944 27.4399 72.98 27.4399C73.1655 27.4399 73.3315 27.3984 73.478 27.3154C73.6245 27.2324 73.7441 27.103 73.8369 26.9272C73.9346 26.7515 74.0054 26.5293 74.0493 26.2607C74.0981 25.9922 74.1226 25.6748 74.1226 25.3086V24.7739C74.1226 24.4175 74.0957 24.105 74.042 23.8364C73.9883 23.563 73.9126 23.3408 73.8149 23.1699C73.7173 22.9941 73.5952 22.8623 73.4487 22.7744C73.3071 22.6816 73.146 22.6353 72.9653 22.6353C72.7847 22.6353 72.6235 22.6816 72.4819 22.7744C72.3452 22.8623 72.2256 22.9941 72.123 23.1699C72.0254 23.3408 71.9497 23.563 71.896 23.8364C71.8472 24.105 71.8228 24.4175 71.8228 24.7739ZM78.2344 17.75H80.2778V27.1616L80.1313 29H78.2344V17.75ZM84.394 24.7739V25.2939C84.394 25.9385 84.3428 26.5 84.2402 26.9785C84.1426 27.457 83.9888 27.8574 83.7788 28.1797C83.5737 28.502 83.3101 28.7437 82.9878 28.9048C82.6655 29.0659 82.2847 29.1465 81.8452 29.1465C81.4497 29.1465 81.1104 29.0537 80.8271 28.8682C80.5439 28.6777 80.3047 28.4165 80.1094 28.0845C79.9189 27.7476 79.7627 27.3545 79.6406 26.9053C79.5234 26.4512 79.438 25.9556 79.3843 25.4185V24.6494C79.4331 24.1221 79.5161 23.6313 79.6333 23.1772C79.7554 22.7231 79.9116 22.3301 80.1021 21.998C80.2925 21.6611 80.5293 21.3999 80.8125 21.2144C81.1006 21.0239 81.4399 20.9287 81.8306 20.9287C82.2798 20.9287 82.6655 21.0117 82.9878 21.1777C83.3101 21.3389 83.5737 21.5806 83.7788 21.9028C83.9888 22.2251 84.1426 22.6279 84.2402 23.1113C84.3428 23.5898 84.394 24.144 84.394 24.7739ZM82.3506 25.2939V24.7739C82.3506 24.4077 82.3359 24.0928 82.3066 23.8291C82.2773 23.5654 82.2236 23.3457 82.1455 23.1699C82.0674 22.9941 81.9551 22.8623 81.8086 22.7744C81.667 22.6865 81.479 22.6426 81.2446 22.6426C81.0347 22.6426 80.8589 22.6841 80.7173 22.7671C80.5757 22.8452 80.4536 22.9624 80.3511 23.1187C80.2534 23.27 80.1802 23.4507 80.1313 23.6606C80.0874 23.8657 80.063 24.0928 80.0581 24.3418V25.7261C80.063 26.063 80.1045 26.3608 80.1826 26.6196C80.2607 26.8784 80.3853 27.0786 80.5562 27.2202C80.7319 27.3618 80.9663 27.4326 81.2593 27.4326C81.4888 27.4326 81.6743 27.3936 81.8159 27.3154C81.9575 27.2373 82.0674 27.1128 82.1455 26.9419C82.2285 26.771 82.2822 26.5513 82.3066 26.2827C82.3359 26.0093 82.3506 25.6797 82.3506 25.2939ZM90.7544 18.3359V29H88.623V18.3359H90.7544ZM93.4058 18.3359V20.1157H86.0229V18.3359H93.4058ZM96.8657 22.8403V29H94.8149V21.0752H96.7485L96.8657 22.8403ZM98.7334 21.0166L98.7041 23.0601C98.6113 23.0405 98.499 23.0259 98.3672 23.0161C98.2402 23.0063 98.1279 23.0015 98.0303 23.0015C97.8008 23.0015 97.6055 23.0381 97.4443 23.1113C97.2832 23.1797 97.1489 23.2847 97.0415 23.4263C96.939 23.563 96.8608 23.7339 96.8071 23.939C96.7534 24.144 96.7217 24.376 96.7119 24.6348L96.3237 24.4883C96.3237 23.9707 96.3628 23.4971 96.4409 23.0674C96.5239 22.6328 96.646 22.2568 96.8071 21.9395C96.9683 21.6172 97.1611 21.3682 97.3857 21.1924C97.6152 21.0166 97.874 20.9287 98.1621 20.9287C98.2598 20.9287 98.3623 20.9385 98.4697 20.958C98.582 20.9727 98.6699 20.9922 98.7334 21.0166ZM103.805 27.1763V23.5142C103.805 23.2749 103.775 23.0845 103.717 22.9429C103.663 22.8013 103.58 22.6987 103.468 22.6353C103.36 22.5669 103.229 22.5327 103.072 22.5327C102.896 22.5327 102.75 22.5693 102.633 22.6426C102.516 22.7158 102.428 22.8208 102.369 22.9575C102.315 23.0942 102.289 23.2578 102.289 23.4482H100.23C100.23 23.1064 100.296 22.7842 100.428 22.4814C100.56 22.1738 100.753 21.9053 101.007 21.6758C101.266 21.4414 101.573 21.2583 101.93 21.1265C102.286 20.9946 102.687 20.9287 103.131 20.9287C103.658 20.9287 104.127 21.019 104.537 21.1997C104.947 21.3755 105.272 21.6562 105.511 22.042C105.75 22.4277 105.87 22.9282 105.87 23.5435V27.0737C105.87 27.5181 105.892 27.8794 105.936 28.1577C105.985 28.436 106.056 28.6753 106.148 28.8755V29H104.083C103.99 28.7803 103.919 28.5068 103.871 28.1797C103.827 27.8477 103.805 27.5132 103.805 27.1763ZM104.054 24.1587L104.061 25.3892H103.307C103.111 25.3892 102.94 25.4209 102.794 25.4844C102.652 25.5479 102.533 25.6382 102.435 25.7554C102.337 25.8677 102.264 25.9995 102.215 26.1509C102.171 26.3022 102.149 26.4634 102.149 26.6343C102.149 26.8247 102.176 26.9858 102.23 27.1177C102.284 27.2495 102.364 27.3496 102.472 27.418C102.579 27.4863 102.706 27.5205 102.853 27.5205C103.077 27.5205 103.272 27.4741 103.438 27.3813C103.604 27.2886 103.727 27.1763 103.805 27.0444C103.888 26.9126 103.915 26.7905 103.885 26.6782L104.354 27.4766C104.295 27.6572 104.215 27.8452 104.112 28.0405C104.015 28.2358 103.89 28.4165 103.739 28.5825C103.587 28.7485 103.399 28.8853 103.175 28.9927C102.955 29.0952 102.694 29.1465 102.391 29.1465C101.966 29.1465 101.578 29.0488 101.227 28.8535C100.875 28.6582 100.597 28.3848 100.392 28.0332C100.191 27.6816 100.091 27.2642 100.091 26.7808C100.091 26.3804 100.155 26.019 100.282 25.6968C100.414 25.3696 100.609 25.0938 100.868 24.8691C101.126 24.6396 101.454 24.4639 101.849 24.3418C102.245 24.2197 102.708 24.1587 103.241 24.1587H104.054ZM111 27.4399C111.19 27.4399 111.354 27.4009 111.491 27.3228C111.632 27.2446 111.74 27.1177 111.813 26.9419C111.886 26.7661 111.925 26.5391 111.93 26.2607H113.856C113.856 26.8564 113.729 27.3716 113.476 27.8062C113.227 28.2358 112.89 28.5679 112.465 28.8022C112.045 29.0317 111.569 29.1465 111.037 29.1465C110.504 29.1465 110.041 29.061 109.645 28.8901C109.25 28.7192 108.922 28.4702 108.664 28.1431C108.41 27.8159 108.217 27.418 108.085 26.9492C107.958 26.4756 107.895 25.9336 107.895 25.3232V24.7446C107.895 24.144 107.958 23.6069 108.085 23.1333C108.217 22.6597 108.41 22.2593 108.664 21.9321C108.922 21.605 109.247 21.356 109.638 21.1851C110.033 21.0142 110.497 20.9287 111.029 20.9287C111.601 20.9287 112.096 21.0483 112.516 21.2876C112.936 21.522 113.263 21.8687 113.498 22.3276C113.737 22.7866 113.856 23.353 113.856 24.0269H111.93C111.925 23.7241 111.889 23.4727 111.82 23.2725C111.757 23.0674 111.657 22.9111 111.52 22.8037C111.388 22.6914 111.212 22.6353 110.993 22.6353C110.763 22.6353 110.578 22.6841 110.436 22.7817C110.299 22.8745 110.194 23.0112 110.121 23.1919C110.053 23.3677 110.006 23.5874 109.982 23.8511C109.958 24.1147 109.945 24.4126 109.945 24.7446V25.3232C109.945 25.6797 109.955 25.9897 109.975 26.2534C109.999 26.5122 110.045 26.7319 110.114 26.9126C110.187 27.0884 110.292 27.2202 110.429 27.3081C110.57 27.396 110.761 27.4399 111 27.4399ZM117.836 17.7427V29H115.786V17.7427H117.836ZM122.004 21.0752L119.213 25.0156L117.536 26.8979L116.811 25.3379L118.1 23.4556L119.558 21.0752H122.004ZM119.865 29L118.137 25.3599L119.55 24.0562L122.216 29H119.865ZM130.02 24.9863V26.6929H123.508L123.413 25.3525L127.039 18.3359H128.665L127.002 21.4561L125.42 24.9863H130.02ZM129.111 18.3359V29H127.053V18.3359H129.111ZM136.944 18.3359H139.083V25.6602C139.083 26.4805 138.931 27.1494 138.628 27.667C138.331 28.1797 137.918 28.5557 137.391 28.7949C136.863 29.0293 136.26 29.1465 135.582 29.1465C134.898 29.1465 134.29 29.0293 133.758 28.7949C133.226 28.5557 132.811 28.1797 132.513 27.667C132.22 27.1494 132.073 26.4805 132.073 25.6602V18.3359H134.212V25.6602C134.212 26.124 134.263 26.4805 134.366 26.7295C134.473 26.9785 134.627 27.1494 134.827 27.2422C135.032 27.3301 135.284 27.374 135.582 27.374C135.884 27.374 136.133 27.3301 136.329 27.2422C136.529 27.1494 136.68 26.9785 136.783 26.7295C136.89 26.4805 136.944 26.124 136.944 25.6602V18.3359Z" fill="#10C7BC"/>
</svg>
